:SAMPLES-PER-SECOND 30
:FULLY-SPECIFIED
:DEGREES
454
root  12.9207 34.6486 -19.1222 4.63032 19.1185 -0.596258
RightUpLeg  -4.24155 -5.12283 -6.8278
RightLeg  6.93964 7.21265 0.411203
RightFoot  6.90295 -0.0111789 0.955237
RightToes  -36.193 -0.188808 -0.290047
Spine  -2.51301 2.6899 -2.88725
Spine1  -4.91845 5.01062 -4.95093
HEad  -71.923 -18.3331 13.3982
LeftShoulder1  -1.94126e-019 -3.10601e-018 -2.51263e-017
LeftArm  -11.3516 23.3131 -72.3611
LeftForeArm  29.5718 -19.9243 -3.53808
LeftHand  -0.410672 0.509614 9.79454
RightShoulder  -4.96962e-017 0 -2.36833e-017
RightArm  -38.3118 45.5759 35.232
RightForeArm  49.5244 59.0199 14.3075
RightHand  -0.0455251 -4.84912 -5.02308
LeftUpLeg  -6.17295 -1.18781 0.624186
LeftLeg  13.9743 18.4503 3.28735
LeftFoot  0.641481 0.000252355 0.364145
LeftToes  -12.5086 2.25955e-006 -3.67304e-008
455
root  12.9183 34.6491 -19.175 4.66919 18.6117 -0.66463
RightUpLeg  -4.3182 -5.02764 -6.79494
RightLeg  6.56567 7.60243 0.383667
RightFoot  7.14813 -0.0152726 1.0311
RightToes  -36.5857 -0.191798 -0.289989
Spine  -2.32631 2.77872 -2.81921
Spine1  -4.54115 5.18688 -4.79858
HEad  -71.6696 -18.0655 14.0249
LeftShoulder1  -1.94126e-019 -3.10601e-018 -2.51263e-017
LeftArm  -11.2155 23.3779 -72.9237
LeftForeArm  30.1034 -20.0648 -3.54104
LeftHand  -0.416597 0.437729 9.79853
RightShoulder  -4.96962e-017 0 -2.36833e-017
RightArm  -35.2738 42.4875 37.2898
RightForeArm  56.2086 65.6167 19.0645
RightHand  0.00952344 -5.85093 -8.30191
LeftUpLeg  -6.28573 -0.618193 0.667115
LeftLeg  14.041 18.3578 3.2931
LeftFoot  0.605646 -0.000725744 0.350044
LeftToes  -12.5713 2.25955e-006 -3.67304e-008
456
root  12.9115 34.6435 -19.2293 4.87068 18.3111 -0.595949
RightUpLeg  -4.59184 -5.46367 -6.92005
RightLeg  6.44113 8.37717 0.404323
RightFoot  7.249 -0.021819 1.13915
RightToes  -37.383 -0.197922 -0.290194
Spine  -2.23764 2.65284 -2.69727
Spine1  -4.3628 4.94582 -4.54459
HEad  -71.1631 -17.2612 13.7046
LeftShoulder1  -1.94126e-019 -3.10601e-018 -2.51263e-017
LeftArm  -10.838 24.0675 -73.5273
LeftForeArm  29.4184 -20.3967 -3.53519
LeftHand  -0.415861 0.357485 9.63256
RightShoulder  -4.96962e-017 0 -2.36833e-017
RightArm  -32.5927 38.6085 41.6413
RightForeArm  68.9249 74.4861 32.6281
RightHand  0.145783 -7.17751 -11.0897
LeftUpLeg  -6.41983 -0.214774 0.586832
LeftLeg  13.8415 18.2735 3.21416
LeftFoot  0.630229 -0.00107545 0.357154
LeftToes  -12.6049 2.25955e-006 -3.67304e-008
457
root  12.8967 34.6467 -19.2762 5.2212 18.0503 -0.441117
RightUpLeg  -4.97766 -5.63989 -7.06008
RightLeg  6.31718 8.77659 0.404512
RightFoot  7.37418 -0.0256867 1.2062
RightToes  -38.0629 -0.203196 -0.290628
Spine  -2.22007 2.40559 -2.58165
Spine1  -4.31376 4.44716 -4.29639
HEad  -70.1418 -16.4461 12.9773
LeftShoulder1  -1.94126e-019 -3.10601e-018 -2.51263e-017
LeftArm  -10.4073 24.8025 -74.1779
LeftForeArm  28.6746 -20.3476 -3.45987
LeftHand  -0.420871 0.221812 9.50496
RightShoulder  -4.96962e-017 0 -2.36833e-017
RightArm  -29.0471 33.5546 47.1341
RightForeArm  104.675 80.8816 71.1068
RightHand  0.283906 -8.03333 -13.5087
LeftUpLeg  -6.473 -0.122097 0.423822
LeftLeg  13.2335 18.4486 3.04632
LeftFoot  0.909135 -0.00230879 0.452604
LeftToes  -12.7757 2.25955e-006 -3.67304e-008
458
root  12.8737 34.6679 -19.283 5.64343 17.7362 -0.325933
RightUpLeg  -5.21934 -5.35848 -7.09663
RightLeg  5.82902 8.7462 0.328737
RightFoot  7.65344 -0.0273678 1.23935
RightToes  -38.0547 -0.205631 -0.291259
Spine  -2.30041 2.10044 -2.49046
Spine1  -4.42963 3.78744 -4.07951
HEad  -68.41 -15.9372 12.0639
LeftShoulder1  -1.94126e-019 -3.10601e-018 -2.51263e-017
LeftArm  -10.4498 25.3982 -74.8849
LeftForeArm  28.6585 -19.7237 -3.31392
LeftHand  -0.408728 0.147996 9.10772
RightShoulder  -4.96962e-017 0 -2.36833e-017
RightArm  -23.7654 26.9389 53.2217
RightForeArm  145.803 80.4709 114.208
RightHand  0.47189 -8.42617 -18.5961
LeftUpLeg  -6.26611 -0.114072 0.322126
LeftLeg  12.0362 18.792 2.70683
LeftFoot  1.43787 -0.00596379 0.636848
LeftToes  -13.0233 2.25955e-006 -3.67304e-008
459
root  12.8458 34.695 -19.2907 6.03546 17.7146 -0.161481
RightUpLeg  -5.23913 -5.5449 -7.17634
RightLeg  5.1173 8.88657 0.223867
RightFoot  7.97186 -0.0313534 1.30283
RightToes  -37.9693 -0.207572 -0.292051
Spine  -2.3928 1.75459 -2.44466
Spine1  -4.57832 3.06106 -3.95935
HEad  -66.2546 -15.8534 11.2742
LeftShoulder1  -1.94126e-019 -3.10601e-018 -2.51263e-017
LeftArm  -10.81 25.6063 -75.632
LeftForeArm  29.1923 -18.5276 -3.10104
LeftHand  -0.425533 -0.116697 9.0488
RightShoulder  -4.96962e-017 0 -2.36833e-017
RightArm  -18.1585 18.5063 59.165
RightForeArm  160.508 79.2087 127.243
RightHand  0.333746 -7.12666 -22.7353
LeftUpLeg  -5.92696 -0.295423 0.189099
LeftLeg  10.5615 19.058 2.25467
LeftFoot  2.11831 -0.013249 0.878205
LeftToes  -13.2778 2.25955e-006 -3.67304e-008
460
root  12.8058 34.7178 -19.289 6.35114 17.4313 -0.0315863
RightUpLeg  -5.20059 -5.14636 -7.21124
RightLeg  4.31523 8.67751 0.0974874
RightFoot  8.31316 -0.0328194 1.32783
RightToes  -38.0176 -0.20905 -0.292971
Spine  -2.41201 1.6113 -2.36366
Spine1  -4.62361 2.79486 -3.79473
HEad  -64.1467 -16.0448 10.6664
LeftShoulder1  -1.94126e-019 -3.10601e-018 -2.51263e-017
LeftArm  -11.589 25.4734 -76.5738
LeftForeArm  30.015 -17.135 -2.84528
LeftHand  -0.43337 -0.221527 9.05155
RightShoulder  -4.96962e-017 0 -2.36833e-017
RightArm  -13.0685 9.24973 64.0055
RightForeArm  155.032 80.1877 119.635
RightHand  0.0918542 -5.85162 -24.4253
LeftUpLeg  -5.38205 -0.00486434 0.132829
LeftLeg  8.82339 19.0531 1.68129
LeftFoot  2.94548 -0.025778 1.16421
LeftToes  -14.0309 2.25955e-006 -3.67304e-008
